<?xml version="1.0" encoding="UTF-8"?>
<!-- Do not edit this file with editors other than draw.io -->
<!DOCTYPE svg PUBLIC "-//W3C//DTD SVG 1.1//EN" "http://www.w3.org/Graphics/SVG/1.1/DTD/svg11.dtd">
<svg
	xmlns="http://www.w3.org/2000/svg" style="background: transparent; background-color: transparent; color-scheme: light dark;"
	xmlns:xlink="http://www.w3.org/1999/xlink" version="1.1" width="-1px" height="-1px" viewBox="0 0  -1 -1" content="">
	<defs/>
	<g>
		<g data-cell-id="0">
			<g data-cell-id="1">  <g data-cell-id="module_java">
    <g data-cell-id="module_java_icon">
      <svg xmlns="http://www.w3.org/2000/svg" x="0" y="0" fill="none" viewBox="2 4 20 16" height="12" width="14">
        <path style="stroke: light-dark(#505050, #B9B5B4);" stroke-linejoin="round" stroke-linecap="round" stroke-width="2" stroke="#000000" d="M3 8.2C3 7.07989 3 6.51984 3.21799 6.09202C3.40973 5.71569 3.71569 5.40973 4.09202 5.21799C4.51984 5 5.0799 5 6.2 5H9.67452C10.1637 5 10.4083 5 10.6385 5.05526C10.8425 5.10425 11.0376 5.18506 11.2166 5.29472C11.4184 5.4184 11.5914 5.59135 11.9373 5.93726L12.0627 6.06274C12.4086 6.40865 12.5816 6.5816 12.7834 6.70528C12.9624 6.81494 13.1575 6.89575 13.3615 6.94474C13.5917 7 13.8363 7 14.3255 7H17.8C18.9201 7 19.4802 7 19.908 7.21799C20.2843 7.40973 20.5903 7.71569 20.782 8.09202C21 8.51984 21 9.0799 21 10.2V15.8C21 16.9201 21 17.4802 20.782 17.908C20.5903 18.2843 20.2843 18.5903 19.908 18.782C19.4802 19 18.9201 19 17.8 19H6.2C5.07989 19 4.51984 19 4.09202 18.782C3.71569 18.5903 3.40973 18.2843 3.21799 17.908C3 17.4802 3 16.9201 3 15.8V8.2Z"/>

      </svg>
    </g>
    <g data-cell-id="module_java_label">
      <text x="18" y="10" fill="light-dark(#505050, #B9B5B4)" font-family="Helvetica" font-size="12px">java</text>
    </g>
  </g>
  <g data-cell-id="module_com">
    <g data-cell-id="module_com_icon">
      <svg xmlns="http://www.w3.org/2000/svg" x="16" y="18" fill="none" viewBox="2 4 20 16" height="12" width="14">
        <path style="stroke: light-dark(#505050, #B9B5B4);" stroke-linejoin="round" stroke-linecap="round" stroke-width="2" stroke="#000000" d="M3 8.2C3 7.07989 3 6.51984 3.21799 6.09202C3.40973 5.71569 3.71569 5.40973 4.09202 5.21799C4.51984 5 5.0799 5 6.2 5H9.67452C10.1637 5 10.4083 5 10.6385 5.05526C10.8425 5.10425 11.0376 5.18506 11.2166 5.29472C11.4184 5.4184 11.5914 5.59135 11.9373 5.93726L12.0627 6.06274C12.4086 6.40865 12.5816 6.5816 12.7834 6.70528C12.9624 6.81494 13.1575 6.89575 13.3615 6.94474C13.5917 7 13.8363 7 14.3255 7H17.8C18.9201 7 19.4802 7 19.908 7.21799C20.2843 7.40973 20.5903 7.71569 20.782 8.09202C21 8.51984 21 9.0799 21 10.2V15.8C21 16.9201 21 17.4802 20.782 17.908C20.5903 18.2843 20.2843 18.5903 19.908 18.782C19.4802 19 18.9201 19 17.8 19H6.2C5.07989 19 4.51984 19 4.09202 18.782C3.71569 18.5903 3.40973 18.2843 3.21799 17.908C3 17.4802 3 16.9201 3 15.8V8.2Z"/>

      </svg>
    </g>
    <g data-cell-id="module_com_label">
      <text x="34" y="28" fill="light-dark(#505050, #B9B5B4)" font-family="Helvetica" font-size="12px">com</text>
    </g>
    <g>
      <path d="M 7 18 L 7 14" fill="none" stroke="#505050" stroke-miterlimit="10" pointer-events="stroke" style="stroke: light-dark(#505050, #726C70);"/>
      <path d="M 7 18 Q 7 24 11 24" fill="none" stroke="#505050" stroke-miterlimit="10" pointer-events="stroke" style="stroke: light-dark(#505050, #726C70);"/>
      <path d="M 11 24 L 14 24" fill="none" stroke="#505050" stroke-miterlimit="10" pointer-events="stroke" style="stroke: light-dark(#505050, #726C70);"/>
    </g>
  </g>
  <g data-cell-id="module_example">
    <g data-cell-id="module_example_icon">
      <svg xmlns="http://www.w3.org/2000/svg" x="32" y="36" fill="none" viewBox="2 4 20 16" height="12" width="14">
        <path style="stroke: light-dark(#505050, #B9B5B4);" stroke-linejoin="round" stroke-linecap="round" stroke-width="2" stroke="#000000" d="M3 8.2C3 7.07989 3 6.51984 3.21799 6.09202C3.40973 5.71569 3.71569 5.40973 4.09202 5.21799C4.51984 5 5.0799 5 6.2 5H9.67452C10.1637 5 10.4083 5 10.6385 5.05526C10.8425 5.10425 11.0376 5.18506 11.2166 5.29472C11.4184 5.4184 11.5914 5.59135 11.9373 5.93726L12.0627 6.06274C12.4086 6.40865 12.5816 6.5816 12.7834 6.70528C12.9624 6.81494 13.1575 6.89575 13.3615 6.94474C13.5917 7 13.8363 7 14.3255 7H17.8C18.9201 7 19.4802 7 19.908 7.21799C20.2843 7.40973 20.5903 7.71569 20.782 8.09202C21 8.51984 21 9.0799 21 10.2V15.8C21 16.9201 21 17.4802 20.782 17.908C20.5903 18.2843 20.2843 18.5903 19.908 18.782C19.4802 19 18.9201 19 17.8 19H6.2C5.07989 19 4.51984 19 4.09202 18.782C3.71569 18.5903 3.40973 18.2843 3.21799 17.908C3 17.4802 3 16.9201 3 15.8V8.2Z"/>

      </svg>
    </g>
    <g data-cell-id="module_example_label">
      <text x="50" y="46" fill="light-dark(#505050, #B9B5B4)" font-family="Helvetica" font-size="12px">example</text>
    </g>
    <g>
      <path d="M 23 36 L 23 32" fill="none" stroke="#505050" stroke-miterlimit="10" pointer-events="stroke" style="stroke: light-dark(#505050, #726C70);"/>
      <path d="M 23 36 Q 23 42 27 42" fill="none" stroke="#505050" stroke-miterlimit="10" pointer-events="stroke" style="stroke: light-dark(#505050, #726C70);"/>
      <path d="M 27 42 L 30 42" fill="none" stroke="#505050" stroke-miterlimit="10" pointer-events="stroke" style="stroke: light-dark(#505050, #726C70);"/>
    </g>
  </g>
  <g data-cell-id="module_botany">
    <g data-cell-id="module_botany_icon">
      <svg xmlns="http://www.w3.org/2000/svg" x="48" y="54" fill="none" viewBox="2 4 20 16" height="12" width="14">
        <path style="stroke: light-dark(#505050, #B9B5B4);" stroke-linejoin="round" stroke-linecap="round" stroke-width="2" stroke="#000000" d="M3 8.2C3 7.07989 3 6.51984 3.21799 6.09202C3.40973 5.71569 3.71569 5.40973 4.09202 5.21799C4.51984 5 5.0799 5 6.2 5H9.67452C10.1637 5 10.4083 5 10.6385 5.05526C10.8425 5.10425 11.0376 5.18506 11.2166 5.29472C11.4184 5.4184 11.5914 5.59135 11.9373 5.93726L12.0627 6.06274C12.4086 6.40865 12.5816 6.5816 12.7834 6.70528C12.9624 6.81494 13.1575 6.89575 13.3615 6.94474C13.5917 7 13.8363 7 14.3255 7H17.8C18.9201 7 19.4802 7 19.908 7.21799C20.2843 7.40973 20.5903 7.71569 20.782 8.09202C21 8.51984 21 9.0799 21 10.2V15.8C21 16.9201 21 17.4802 20.782 17.908C20.5903 18.2843 20.2843 18.5903 19.908 18.782C19.4802 19 18.9201 19 17.8 19H6.2C5.07989 19 4.51984 19 4.09202 18.782C3.71569 18.5903 3.40973 18.2843 3.21799 17.908C3 17.4802 3 16.9201 3 15.8V8.2Z"/>

      </svg>
    </g>
    <g data-cell-id="module_botany_label">
      <text x="66" y="64" fill="light-dark(#505050, #B9B5B4)" font-family="Helvetica" font-size="12px">botany</text>
    </g>
    <g>
      <path d="M 39 54 L 39 50" fill="none" stroke="#505050" stroke-miterlimit="10" pointer-events="stroke" style="stroke: light-dark(#505050, #726C70);"/>
      <path d="M 39 54 Q 39 60 43 60" fill="none" stroke="#505050" stroke-miterlimit="10" pointer-events="stroke" style="stroke: light-dark(#505050, #726C70);"/>
      <path d="M 43 60 L 46 60" fill="none" stroke="#505050" stroke-miterlimit="10" pointer-events="stroke" style="stroke: light-dark(#505050, #726C70);"/>
    </g>
  </g>
  <g data-cell-id="module_fruit">
    <g data-cell-id="module_fruit_icon">
      <svg xmlns="http://www.w3.org/2000/svg" x="64" y="72" fill="none" viewBox="2 4 20 16" height="12" width="14">
        <path style="stroke: light-dark(#505050, #B9B5B4);" stroke-linejoin="round" stroke-linecap="round" stroke-width="2" stroke="#000000" d="M3 8.2C3 7.07989 3 6.51984 3.21799 6.09202C3.40973 5.71569 3.71569 5.40973 4.09202 5.21799C4.51984 5 5.0799 5 6.2 5H9.67452C10.1637 5 10.4083 5 10.6385 5.05526C10.8425 5.10425 11.0376 5.18506 11.2166 5.29472C11.4184 5.4184 11.5914 5.59135 11.9373 5.93726L12.0627 6.06274C12.4086 6.40865 12.5816 6.5816 12.7834 6.70528C12.9624 6.81494 13.1575 6.89575 13.3615 6.94474C13.5917 7 13.8363 7 14.3255 7H17.8C18.9201 7 19.4802 7 19.908 7.21799C20.2843 7.40973 20.5903 7.71569 20.782 8.09202C21 8.51984 21 9.0799 21 10.2V15.8C21 16.9201 21 17.4802 20.782 17.908C20.5903 18.2843 20.2843 18.5903 19.908 18.782C19.4802 19 18.9201 19 17.8 19H6.2C5.07989 19 4.51984 19 4.09202 18.782C3.71569 18.5903 3.40973 18.2843 3.21799 17.908C3 17.4802 3 16.9201 3 15.8V8.2Z"/>

      </svg>
    </g>
    <g data-cell-id="module_fruit_label">
      <text x="82" y="82" fill="light-dark(#505050, #B9B5B4)" font-family="Helvetica" font-size="12px">fruit</text>
    </g>
    <g>
      <path d="M 55 72 L 55 68" fill="none" stroke="#505050" stroke-miterlimit="10" pointer-events="stroke" style="stroke: light-dark(#505050, #726C70);"/>
      <path d="M 55 72 Q 55 78 59 78" fill="none" stroke="#505050" stroke-miterlimit="10" pointer-events="stroke" style="stroke: light-dark(#505050, #726C70);"/>
      <path d="M 59 78 L 62 78" fill="none" stroke="#505050" stroke-miterlimit="10" pointer-events="stroke" style="stroke: light-dark(#505050, #726C70);"/>
    </g>
  </g>
  <g data-cell-id="module_Tomato_java">
    <g data-cell-id="module_Tomato_java_icon">
      <svg xmlns="http://www.w3.org/2000/svg" x="80" y="90" fill="none" viewBox="4 2 16 20" height="12" width="14">
        <path style="stroke: light-dark(#505050, #B9B5B4);" stroke-linejoin="round" stroke-linecap="round" stroke-width="2" d="M13 3.00087C12.9045 3 12.7973 3 12.6747 3H8.2002C7.08009 3 6.51962 3 6.0918 3.21799C5.71547 3.40973 5.40973 3.71547 5.21799 4.0918C5 4.51962 5 5.08009 5 6.2002V17.8002C5 18.9203 5 19.4801 5.21799 19.9079C5.40973 20.2842 5.71547 20.5905 6.0918 20.7822C6.51921 21 7.079 21 8.19694 21L15.8031 21C16.921 21 17.48 21 17.9074 20.7822C18.2837 20.5905 18.5905 20.2842 18.7822 19.9079C19 19.4805 19 18.9215 19 17.8036V9.32568C19 9.20296 19 9.09561 18.9991 9M13 3.00087C13.2856 3.00347 13.4663 3.01385 13.6388 3.05526C13.8429 3.10425 14.0379 3.18526 14.2168 3.29492C14.4186 3.41857 14.5918 3.59182 14.9375 3.9375L18.063 7.06298C18.4089 7.40889 18.5809 7.58136 18.7046 7.78319C18.8142 7.96214 18.8953 8.15726 18.9443 8.36133C18.9857 8.53376 18.9963 8.71451 18.9991 9M13 3.00087V5.8C13 6.9201 13 7.47977 13.218 7.90759C13.4097 8.28392 13.7155 8.59048 14.0918 8.78223C14.5192 9 15.079 9 16.1969 9H18.9991M18.9991 9H19.0002M14 13L16 15L14 17M10 17L8 15L10 13" id="Vector"/>\n
      </svg>
    </g>
    <g data-cell-id="module_Tomato_java_label">
      <text x="98" y="100" fill="light-dark(#505050, #B9B5B4)" font-family="Helvetica" font-size="12px">Tomato.java</text>
    </g>
    <g>
      <path d="M 71 90 L 71 86" fill="none" stroke="#505050" stroke-miterlimit="10" pointer-events="stroke" style="stroke: light-dark(#505050, #726C70);"/>
      <path d="M 71 90 Q 71 96 75 96" fill="none" stroke="#505050" stroke-miterlimit="10" pointer-events="stroke" style="stroke: light-dark(#505050, #726C70);"/>
      <path d="M 75 96 L 78 96" fill="none" stroke="#505050" stroke-miterlimit="10" pointer-events="stroke" style="stroke: light-dark(#505050, #726C70);"/>
    </g>
  </g>
			</g>
		</g>
	</g>
</svg>
